<svg width="35" height="35" viewBox="0 0 35 35" fill="none" xmlns="http://www.w3.org/2000/svg">
<g clip-path="url(#clip0_259_997)">
<path d="M26.6094 23.1523C25.466 22.0234 24.0385 22.0234 22.9023 23.1523C22.0356 24.0117 21.1689 24.8711 20.3168 25.7451C20.0837 25.9855 19.8871 26.0364 19.603 25.8762C19.0422 25.5703 18.445 25.3227 17.906 24.9877C15.3933 23.4072 13.2885 21.3752 11.424 19.0883C10.4991 17.9521 9.67605 16.7358 9.10068 15.3666C8.98415 15.0898 9.006 14.9078 9.23178 14.682C10.0985 13.8444 10.9433 12.985 11.7955 12.1256C12.9826 10.9311 12.9826 9.53277 11.7882 8.33105C11.1108 7.64643 10.4335 6.97638 9.75617 6.29176C9.05698 5.59258 8.36508 4.88611 7.65862 4.19421C6.51516 3.07989 5.08766 3.07989 3.95148 4.20149C3.0775 5.06091 2.23994 5.94217 1.35139 6.78702C0.528392 7.56632 0.113251 8.52041 0.0258528 9.63474C-0.112527 11.4482 0.331746 13.1598 0.958099 14.8276C2.23994 18.2799 4.19183 21.3461 6.55886 24.1574C9.75617 27.9592 13.5726 30.9671 18.0371 33.1375C20.0473 34.1135 22.1303 34.8636 24.3953 34.9875C25.9539 35.0748 27.3086 34.6816 28.3938 33.4653C29.1367 32.635 29.9743 31.8775 30.7608 31.0837C31.9261 29.9038 31.9334 28.4763 30.7754 27.311C29.3916 25.9199 28.0005 24.5361 26.6094 23.1523Z" fill="white"/>
<path d="M25.2182 17.3489L27.9057 16.89C27.4833 14.421 26.318 12.1851 24.5481 10.408C22.6764 8.53622 20.3093 7.35635 17.702 6.99219L17.3232 9.69424C19.3407 9.97829 21.176 10.8887 22.6254 12.338C23.9946 13.7073 24.8905 15.4407 25.2182 17.3489Z" fill="white"/>
<path d="M29.4206 5.66631C26.318 2.56368 22.3924 0.604503 18.0589 0L17.6802 2.70206C21.4237 3.22644 24.8177 4.92342 27.4979 7.59635C30.0397 10.1382 31.7076 13.35 32.3121 16.8824L34.9996 16.4235C34.2931 12.3304 32.363 8.61599 29.4206 5.66631Z" fill="white"/>
</g>
<defs>
<clipPath id="clip0_259_997">
<rect width="35" height="35" fill="white"/>
</clipPath>
</defs>
</svg>
