<svg width="35" height="36" viewBox="0 0 35 36" fill="none" xmlns="http://www.w3.org/2000/svg">
<path d="M29.946 5.18904C27.0089 2.22259 23.1084 0.403372 18.9481 0.0595159C14.7877 -0.28434 10.6415 0.869806 7.25716 3.31377C3.87285 5.75774 1.47328 9.33064 0.491279 13.388C-0.490722 17.4454 0.00949236 21.7201 1.90169 25.4411L0.0442617 34.4588C0.0249888 34.5486 0.0244429 34.6414 0.0426586 34.7313C0.0608742 34.8213 0.0974589 34.9066 0.150125 34.9817C0.227278 35.0959 0.337408 35.1837 0.465809 35.2336C0.59421 35.2835 0.73477 35.293 0.868718 35.2608L9.70676 33.166C13.4173 35.0103 17.6619 35.4784 21.6852 34.4869C25.7085 33.4954 29.2495 31.1087 31.6782 27.7514C34.1069 24.3942 35.2658 20.2842 34.9486 16.1527C34.6314 12.0212 32.8588 8.13621 29.946 5.18904ZM27.1904 27.1831C25.1582 29.2096 22.5413 30.5473 19.7085 31.0077C16.8758 31.4681 13.97 31.0281 11.4006 29.7495L10.1687 29.14L4.7504 30.4232L4.76644 30.3558L5.88924 24.9022L5.28614 23.712C3.97329 21.1337 3.51017 18.206 3.96311 15.3483C4.41605 12.4906 5.76182 9.84958 7.80763 7.80356C10.3782 5.23377 13.8642 3.79014 17.499 3.79014C21.1338 3.79014 24.6198 5.23377 27.1904 7.80356C27.2123 7.82866 27.2358 7.85224 27.2609 7.87414C29.7997 10.4506 31.2169 13.9261 31.2037 17.5432C31.1905 21.1602 29.7479 24.6253 27.1904 27.1831Z" fill="white"/>
<path d="M26.7091 23.1797C26.045 24.2256 24.996 25.5055 23.6775 25.8231C21.3678 26.3813 17.8229 25.8424 13.4119 21.7297L13.3574 21.6816C9.47892 18.0854 8.47161 15.0924 8.71541 12.7185C8.85015 11.3711 9.97295 10.1521 10.9193 9.35647C11.0689 9.22877 11.2464 9.13786 11.4374 9.09099C11.6284 9.04413 11.8278 9.04261 12.0195 9.08657C12.2112 9.13053 12.39 9.21874 12.5416 9.34414C12.6931 9.46955 12.8132 9.62868 12.8922 9.8088L14.3198 13.0168C14.4126 13.2248 14.4469 13.4541 14.4192 13.6802C14.3916 13.9063 14.3028 14.1205 14.1626 14.3L13.4408 15.2367C13.2859 15.4302 13.1925 15.6655 13.1725 15.9125C13.1524 16.1594 13.2068 16.4068 13.3285 16.6226C13.7327 17.3316 14.7015 18.3742 15.7762 19.3398C16.9824 20.4305 18.3202 21.4282 19.1671 21.7682C19.3937 21.8608 19.6429 21.8834 19.8824 21.8331C20.122 21.7828 20.341 21.6618 20.5112 21.4859L21.3485 20.6422C21.5101 20.4829 21.711 20.3693 21.9308 20.3129C22.1506 20.2566 22.3814 20.2595 22.5996 20.3214L25.9905 21.2838C26.1775 21.3412 26.349 21.4406 26.4917 21.5744C26.6345 21.7082 26.7447 21.8729 26.8141 22.0558C26.8834 22.2388 26.91 22.4351 26.8918 22.6299C26.8736 22.8247 26.8111 23.0128 26.7091 23.1797Z" fill="white"/>
</svg>
